#N canvas 489 136 678 613 10;
#X declare -lib mrpeach;
#X obj 8 7 import mrpeach;
#X obj 8 49 udpreceive 50000;
#X obj 8 84 unpackOSC;
#X obj 43 139 print;
#X obj 8 117 routeOSC /fish;
#X obj 9 162 unpack i i i i i i i i i;
#X obj 328 582 dac~;
#X obj 13 394 osc~;
#X obj 11 231 *;
#X obj 11 280 +~ \$2;
#X obj 234 388 osc~;
#X obj 232 225 *;
#X obj 232 274 +~ \$2;
#X obj 266 249 100;
#X obj 482 7 vsl 15 128 0 10 0 0 empty empty empty 0 -9 0 10 -262144
-1 -1 1200 1;
#X obj 266 107 bng 15 250 50 0 empty empty empty 17 7 0 10 -262144
-1 -1;
#X obj 47 254 100;
#X obj 272 388 tgl 15 0 empty empty empty 17 7 0 10 -262144 -1 -1 0
1;
#X obj 234 420 *~ \$2;
#X obj 51 393 tgl 15 0 empty empty empty 17 7 0 10 -262144 -1 -1 0
1;
#X obj 13 426 *~ \$2;
#X obj 85 392 osc~;
#X obj 83 229 *;
#X obj 83 278 +~ \$2;
#X obj 124 392 tgl 15 0 empty empty empty 17 7 0 10 -262144 -1 -1 1
1;
#X obj 85 424 *~ \$2;
#X obj 161 390 osc~;
#X obj 159 227 *;
#X obj 159 276 +~ \$2;
#X obj 195 250 100;
#X obj 198 390 tgl 15 0 empty empty empty 17 7 0 10 -262144 -1 -1 0
1;
#X obj 161 422 *~ \$2;
#X obj 119 252 80;
#X obj 301 385 osc~;
#X obj 299 222 *;
#X obj 299 271 +~ \$2;
#X obj 333 246 100;
#X obj 339 385 tgl 15 0 empty empty empty 17 7 0 10 -262144 -1 -1 0
1;
#X obj 301 417 *~ \$2;
#X obj 519 384 osc~;
#X obj 517 221 *;
#X obj 517 270 +~ \$2;
#X obj 551 245 100;
#X obj 557 384 tgl 15 0 empty empty empty 17 7 0 10 -262144 -1 -1 0
1;
#X obj 519 416 *~ \$2;
#X obj 370 388 osc~;
#X obj 368 225 *;
#X obj 368 274 +~ \$2;
#X obj 409 388 tgl 15 0 empty empty empty 17 7 0 10 -262144 -1 -1 0
1;
#X obj 370 420 *~ \$2;
#X obj 446 386 osc~;
#X obj 444 223 *;
#X obj 444 272 +~ \$2;
#X obj 480 246 100;
#X obj 483 386 tgl 15 0 empty empty empty 17 7 0 10 -262144 -1 -1 0
1;
#X obj 446 418 *~ \$2;
#X obj 404 248 80;
#X obj 586 381 osc~;
#X obj 584 218 *;
#X obj 584 267 +~ \$2;
#X obj 618 242 100;
#X obj 624 381 tgl 15 0 empty empty empty 17 7 0 10 -262144 -1 -1 0
1;
#X obj 586 413 *~ \$2;
#X connect 1 0 2 0;
#X connect 2 0 4 0;
#X connect 4 0 3 0;
#X connect 4 0 5 0;
#X connect 5 0 8 0;
#X connect 5 1 22 0;
#X connect 5 2 27 0;
#X connect 5 3 11 0;
#X connect 5 4 34 0;
#X connect 5 5 46 0;
#X connect 5 6 51 0;
#X connect 5 7 40 0;
#X connect 5 8 58 0;
#X connect 7 0 20 0;
#X connect 8 0 9 0;
#X connect 9 0 7 0;
#X connect 10 0 18 0;
#X connect 11 0 12 0;
#X connect 12 0 10 0;
#X connect 13 0 12 1;
#X connect 14 0 8 1;
#X connect 14 0 11 1;
#X connect 14 0 22 1;
#X connect 14 0 27 1;
#X connect 14 0 34 1;
#X connect 14 0 46 1;
#X connect 14 0 51 1;
#X connect 14 0 40 1;
#X connect 14 0 58 1;
#X connect 15 0 16 0;
#X connect 15 0 13 0;
#X connect 15 0 32 0;
#X connect 15 0 29 0;
#X connect 15 0 36 0;
#X connect 15 0 56 0;
#X connect 15 0 53 0;
#X connect 15 0 42 0;
#X connect 15 0 60 0;
#X connect 16 0 9 1;
#X connect 17 0 18 1;
#X connect 18 0 6 0;
#X connect 18 0 6 1;
#X connect 19 0 20 1;
#X connect 20 0 6 0;
#X connect 20 0 6 1;
#X connect 21 0 25 0;
#X connect 22 0 23 0;
#X connect 23 0 21 0;
#X connect 24 0 25 1;
#X connect 25 0 6 0;
#X connect 25 0 6 1;
#X connect 26 0 31 0;
#X connect 27 0 28 0;
#X connect 28 0 26 0;
#X connect 29 0 28 1;
#X connect 30 0 31 1;
#X connect 31 0 6 0;
#X connect 31 0 6 1;
#X connect 32 0 23 1;
#X connect 33 0 38 0;
#X connect 34 0 35 0;
#X connect 35 0 33 0;
#X connect 36 0 35 1;
#X connect 37 0 38 1;
#X connect 38 0 6 0;
#X connect 38 0 6 1;
#X connect 39 0 44 0;
#X connect 40 0 41 0;
#X connect 41 0 39 0;
#X connect 42 0 41 1;
#X connect 43 0 44 1;
#X connect 44 0 6 1;
#X connect 44 0 6 0;
#X connect 45 0 49 0;
#X connect 46 0 47 0;
#X connect 47 0 45 0;
#X connect 48 0 49 1;
#X connect 49 0 6 0;
#X connect 49 0 6 1;
#X connect 50 0 55 0;
#X connect 51 0 52 0;
#X connect 52 0 50 0;
#X connect 53 0 52 1;
#X connect 54 0 55 1;
#X connect 55 0 6 0;
#X connect 55 0 6 1;
#X connect 56 0 47 1;
#X connect 57 0 62 0;
#X connect 58 0 59 0;
#X connect 59 0 57 0;
#X connect 60 0 59 1;
#X connect 61 0 62 1;
#X connect 62 0 6 0;
#X connect 62 0 6 1;
