#N canvas 282 92 806 755 10;
#X declare -lib mrpeach;
#X obj 8 7 import mrpeach;
#X obj 8 49 udpreceive 50000;
#X obj 8 84 unpackOSC;
#X obj 43 139 print;
#X obj 8 117 routeOSC /fish;
#X obj 9 162 unpack i i i i i i i i i;
#X obj 13 394 osc~;
#X obj 234 388 osc~;
#X obj 482 7 vsl 15 128 0 10 0 0 empty empty empty 0 -9 0 10 -262144
-1 -1 0 1;
#X obj 310 115 bng 15 250 50 0 empty empty empty 17 7 0 10 -262144
-1 -1;
#X obj 85 392 osc~;
#X obj 161 390 osc~;
#X obj 301 385 osc~;
#X obj 519 384 osc~;
#X obj 370 388 osc~;
#X obj 446 386 osc~;
#X obj 586 381 osc~;
#X obj 232 274 261.6;
#X obj 299 271 329.6;
#X obj 368 274 392;
#X obj 444 272 523.25;
#X obj 517 270 659.26;
#X obj 584 267 783.99;
#X obj 11 280 130.81;
#X obj 83 278 164.81;
#X obj 159 276 196;
#X obj -1 552 *~ \$2;
#X obj 61 538 *~ \$2;
#X obj 180 538 *~ \$2;
#X obj 243 510 *~ \$2;
#X obj 297 487 *~ \$2;
#X obj 365 482 *~ \$2;
#X obj 447 497 *~ \$2;
#X obj 518 502 *~ \$2;
#X obj 608 512 *~ \$2;
#X obj 300 710 dac~;
#X obj 298 671 *~;
#X obj 450 706 writesf~ 2;
#X msg 474 614 start;
#X msg 480 649 stop;
#X obj 605 568;
#X msg 448 569 open lavasound.wav;
#X obj 48 661 +~ 1;
#X obj 33 684 *~ 0.5;
#X obj 111 715 expr~ $v1 > $v2;
#X obj 98 659 phasor~;
#X obj 108 592 hsl 128 15 0 127 0 0 empty empty empty -2 -8 0 10 -262144
-1 -1 8500 1;
#X obj 89 635 mtof;
#X obj 35 473 / 227;
#X obj 110 461 / 227;
#X obj 182 457 / 227;
#X obj 251 458 / 227;
#X obj 318 451 / 227;
#X obj 48 604 4;
#X obj 388 446 / 227;
#X obj 467 449 / 227;
#X obj 548 449 / 227;
#X obj 625 447 / 227;
#X connect 1 0 2 0;
#X connect 2 0 4 0;
#X connect 4 0 3 0;
#X connect 4 0 5 0;
#X connect 5 0 48 0;
#X connect 5 1 49 0;
#X connect 5 2 50 0;
#X connect 5 3 51 0;
#X connect 5 4 52 0;
#X connect 5 5 54 0;
#X connect 5 6 55 0;
#X connect 5 7 56 0;
#X connect 5 8 57 0;
#X connect 9 0 17 0;
#X connect 9 0 18 0;
#X connect 9 0 19 0;
#X connect 9 0 23 0;
#X connect 9 0 24 0;
#X connect 9 0 25 0;
#X connect 9 0 20 0;
#X connect 9 0 21 0;
#X connect 9 0 22 0;
#X connect 11 0 44 0;
#X connect 12 0 30 0;
#X connect 17 0 7 0;
#X connect 18 0 12 0;
#X connect 19 0 14 0;
#X connect 20 0 15 0;
#X connect 21 0 13 0;
#X connect 22 0 16 0;
#X connect 23 0 6 0;
#X connect 24 0 10 0;
#X connect 25 0 11 0;
#X connect 26 0 36 0;
#X connect 26 0 36 1;
#X connect 27 0 36 0;
#X connect 27 0 36 1;
#X connect 28 0 36 0;
#X connect 28 0 36 1;
#X connect 29 0 36 0;
#X connect 29 0 36 1;
#X connect 30 0 36 0;
#X connect 30 0 36 1;
#X connect 31 0 36 0;
#X connect 31 0 36 1;
#X connect 32 0 36 0;
#X connect 32 0 36 1;
#X connect 33 0 36 1;
#X connect 33 0 36 0;
#X connect 34 0 36 0;
#X connect 34 0 36 1;
#X connect 36 0 35 0;
#X connect 36 0 35 1;
#X connect 36 0 37 1;
#X connect 36 0 37 0;
#X connect 38 0 37 0;
#X connect 39 0 37 0;
#X connect 41 0 37 0;
#X connect 42 0 43 0;
#X connect 44 0 28 0;
#X connect 45 0 42 0;
#X connect 45 0 44 1;
#X connect 46 0 47 0;
#X connect 47 0 45 0;
#X connect 48 0 26 1;
#X connect 49 0 27 1;
#X connect 50 0 28 1;
#X connect 51 0 29 1;
#X connect 52 0 30 1;
#X connect 54 0 31 1;
#X connect 55 0 32 1;
#X connect 56 0 33 1;
#X connect 57 0 34 1;
