#N canvas 146 243 806 755 10;
#X declare -lib mrpeach;
#X obj 8 7 import mrpeach;
#X obj 8 49 udpreceive 50000;
#X obj 8 84 unpackOSC;
#X obj 43 139 print;
#X obj 8 117 routeOSC /fish;
#X obj 9 162 unpack i i i i i i i i i;
#X obj 13 394 osc~;
#X obj 234 388 osc~;
#X obj 310 115 bng 15 250 50 0 empty empty empty 17 7 0 10 -262144
-1 -1;
#X obj 85 392 osc~;
#X obj 161 390 osc~;
#X obj 301 385 osc~;
#X obj 519 384 osc~;
#X obj 370 388 osc~;
#X obj 446 386 osc~;
#X obj 586 381 osc~;
#X obj 232 274 261.6;
#X obj 584 267 783.99;
#X obj 11 280 130.81;
#X obj 35 473 / 127;
#X obj -1 552 *~ \$2;
#X obj 61 538 *~ \$2;
#X obj 163 510 *~ \$2;
#X obj 229 491 *~ \$2;
#X obj 297 487 *~ \$2;
#X obj 365 482 *~ \$2;
#X obj 447 497 *~ \$2;
#X obj 518 502 *~ \$2;
#X obj 608 512 *~ \$2;
#X obj 110 461 / 127;
#X obj 182 457 / 127;
#X obj 251 458 / 127;
#X obj 318 451 / 127;
#X obj 389 446 / 127;
#X obj 467 449 / 127;
#X obj 548 449 / 127;
#X obj 625 447 / 127;
#X obj 300 710 dac~;
#X obj 298 671 *~;
#X obj 450 706 writesf~ 2;
#X msg 474 614 start;
#X msg 480 649 stop;
#X obj 605 568;
#X obj 368 274 1046.5;
#X obj 299 271 698.46;
#X obj 83 278 349.43;
#X obj 159 276 440;
#X obj 444 272 880;
#X obj 517 270 1760;
#X msg 448 569 open painted.wav;
#X connect 1 0 2 0;
#X connect 2 0 4 0;
#X connect 4 0 3 0;
#X connect 4 0 5 0;
#X connect 5 0 19 0;
#X connect 5 1 29 0;
#X connect 5 2 30 0;
#X connect 5 3 31 0;
#X connect 5 4 32 0;
#X connect 5 5 33 0;
#X connect 5 6 34 0;
#X connect 5 7 35 0;
#X connect 5 8 36 0;
#X connect 7 0 23 0;
#X connect 8 0 16 0;
#X connect 8 0 18 0;
#X connect 8 0 17 0;
#X connect 8 0 43 0;
#X connect 8 0 44 0;
#X connect 8 0 45 0;
#X connect 8 0 46 0;
#X connect 8 0 47 0;
#X connect 8 0 48 0;
#X connect 9 0 21 0;
#X connect 10 0 22 0;
#X connect 11 0 24 0;
#X connect 12 0 27 0;
#X connect 13 0 25 0;
#X connect 14 0 26 0;
#X connect 16 0 7 0;
#X connect 17 0 15 0;
#X connect 18 0 6 0;
#X connect 19 0 20 1;
#X connect 20 0 38 0;
#X connect 20 0 38 1;
#X connect 21 0 38 0;
#X connect 21 0 38 1;
#X connect 22 0 38 0;
#X connect 22 0 38 1;
#X connect 23 0 38 0;
#X connect 23 0 38 1;
#X connect 24 0 38 0;
#X connect 24 0 38 1;
#X connect 25 0 38 0;
#X connect 25 0 38 1;
#X connect 26 0 38 0;
#X connect 26 0 38 1;
#X connect 27 0 38 1;
#X connect 27 0 38 0;
#X connect 28 0 38 0;
#X connect 28 0 38 1;
#X connect 29 0 21 1;
#X connect 30 0 22 1;
#X connect 31 0 23 1;
#X connect 32 0 24 1;
#X connect 33 0 25 1;
#X connect 34 0 26 1;
#X connect 35 0 27 1;
#X connect 36 0 28 1;
#X connect 38 0 37 0;
#X connect 38 0 37 1;
#X connect 38 0 39 1;
#X connect 38 0 39 0;
#X connect 40 0 39 0;
#X connect 41 0 39 0;
#X connect 43 0 13 0;
#X connect 44 0 11 0;
#X connect 45 0 9 0;
#X connect 46 0 10 0;
#X connect 47 0 14 0;
#X connect 48 0 12 0;
#X connect 49 0 39 0;
